<?xml version="1.0" standalone="no"?>
<!DOCTYPE svg PUBLIC "-//W3C//DTD SVG 20010904//EN"
 "http://www.w3.org/TR/2001/REC-SVG-20010904/DTD/svg10.dtd">
<svg version="1.0" xmlns="http://www.w3.org/2000/svg"
 width="1024.000000pt" height="1024.000000pt" viewBox="0 0 1024.000000 1024.000000"
 preserveAspectRatio="xMidYMid meet">

<g transform="translate(0.000000,1024.000000) scale(0.100000,-0.100000)"
fill="#000000" stroke="none">
<path d="M2085 9463 c-157 -14 -351 -71 -498 -144 -152 -75 -269 -161 -403
-294 -216 -215 -331 -425 -406 -741 l-23 -99 0 -2945 c-1 -1620 3 -3001 7
-3070 13 -197 73 -420 159 -591 59 -117 173 -274 274 -375 257 -259 566 -409
915 -445 72 -7 1033 -9 3090 -7 2753 4 2991 5 3067 21 312 64 568 203 790 429
118 119 195 226 262 363 70 143 103 237 133 388 l23 112 0 3050 c0 2886 -1
3055 -18 3137 -52 258 -131 437 -278 634 -171 228 -431 412 -719 508 -229 77
79 70 -3305 71 -1667 1 -3048 0 -3070 -2z m4415 -973 c193 -11 293 -28 445
-77 669 -216 1115 -729 1222 -1407 17 -104 18 -261 18 -2451 0 -2257 -1 -2341
-18 -2370 -11 -17 -35 -42 -55 -55 -35 -25 -37 -25 -319 -28 -273 -3 -285 -2
-321 18 -20 12 -46 33 -57 48 -19 26 -20 47 -26 512 -3 267 -4 1224 -2 2128 2
1035 -1 1684 -7 1755 -22 253 -116 476 -271 642 -133 142 -307 247 -504 302
l-100 28 -1385 0 c-1299 0 -1390 -1 -1459 -18 -363 -88 -628 -330 -745 -681
-58 -175 -56 -70 -56 -2411 0 -1255 -4 -2166 -10 -2189 -12 -54 -38 -87 -90
-114 -43 -21 -54 -22 -311 -22 -258 0 -267 1 -309 23 -28 15 -51 37 -64 62
l-21 40 0 2355 0 2355 23 118 c68 356 219 650 466 905 301 313 717 506 1141
531 183 11 2627 12 2815 1z m-308 -1542 c358 -98 592 -327 691 -676 l22 -77 3
-1261 3 -1262 82 -4 c90 -5 127 -19 177 -70 101 -101 107 -277 13 -387 -42
-50 -72 -66 -183 -101 l-85 -26 -3 -108 c-2 -98 0 -114 24 -174 22 -55 28 -87
32 -181 5 -128 -7 -202 -44 -270 -21 -38 -24 -56 -24 -147 l0 -104 -838 0
-838 0 -54 -41 c-83 -62 -146 -96 -235 -126 -71 -24 -96 -27 -220 -27 -120 -1
-151 2 -215 22 -93 30 -189 78 -259 131 l-55 41 -433 0 -433 0 0 1490 c0 824
-4 1490 -9 1490 -23 0 -100 84 -120 131 -26 60 -30 149 -8 201 19 46 68 100
111 123 l36 20 0 286 c0 309 8 379 55 519 107 314 388 546 735 605 58 10 287
13 1025 11 l950 -1 97 -27z"/>
<path d="M4257 6305 c-164 -41 -313 -159 -389 -308 -49 -99 -68 -192 -68 -344
0 -156 -19 -135 165 -180 66 -17 128 -33 137 -37 15 -7 16 -2 11 46 -3 29 -1
84 5 121 22 137 91 235 214 299 l63 33 600 6 c409 4 613 9 640 17 68 20 110
14 216 -30 150 -62 224 -137 258 -264 6 -23 11 -153 12 -309 1 -149 4 -273 5
-276 2 -3 33 0 68 8 61 14 68 14 103 -4 35 -17 42 -27 85 -136 26 -65 49 -128
51 -140 3 -12 4 212 3 498 l-1 520 -27 80 c-63 185 -196 318 -388 387 l-65 23
-820 2 c-678 1 -830 -1 -878 -12z"/>
<path d="M5640 5835 c-30 -7 -156 -42 -280 -78 -222 -64 -225 -66 -228 -94 -1
-15 22 -102 53 -193 30 -90 55 -170 55 -177 0 -6 -38 -23 -83 -37 -141 -43
-121 -59 -192 159 -57 175 -64 190 -87 193 -30 4 -577 -155 -597 -173 -11 -11
8 -76 117 -396 158 -467 148 -439 169 -439 10 0 68 15 128 34 185 56 661 205
820 256 83 27 216 69 298 95 81 25 147 50 147 56 0 22 -243 785 -254 795 -8 9
-25 8 -66 -1z"/>
<path d="M3362 5436 c-81 -44 -84 -199 -4 -240 15 -7 99 -30 187 -51 276 -64
244 -48 276 -140 24 -72 125 -370 531 -1569 113 -334 120 -361 103 -370 -53
-32 -155 -120 -187 -163 -173 -229 -146 -539 64 -728 71 -64 128 -95 221 -122
196 -57 397 -8 544 131 113 106 166 229 167 388 l1 87 440 150 c1503 511 1381
467 1405 501 31 44 35 100 12 153 -42 95 -113 107 -287 49 -143 -48 -1510
-497 -1617 -532 l-97 -31 -56 46 c-65 52 -137 91 -215 115 -47 15 -57 23 -67
51 -7 19 -74 212 -148 429 -75 217 -153 440 -172 495 -37 107 -66 191 -278
810 -75 220 -143 407 -151 416 -8 9 -43 22 -77 29 -34 7 -163 34 -285 61 -237
52 -273 56 -310 35z m1468 -2626 c91 -45 139 -113 147 -209 10 -113 -40 -204
-140 -255 -142 -73 -326 3 -368 151 -42 151 28 287 171 334 43 14 142 3 190
-21z"/>
<path d="M6180 4965 c-25 -7 -139 -42 -255 -78 -446 -140 -415 -128 -415 -154
0 -12 25 -96 55 -185 30 -89 54 -167 52 -172 -2 -7 -218 -78 -223 -73 -1 1
-27 82 -59 179 -31 98 -60 180 -64 182 -11 7 -95 -16 -321 -86 -107 -33 -211
-65 -230 -70 -101 -27 -222 -72 -227 -84 -3 -7 5 -44 17 -81 20 -59 360 -1044
390 -1129 9 -26 27 -38 109 -77 54 -26 106 -47 117 -47 10 1 372 119 804 263
748 250 785 263 783 285 -5 45 -459 1312 -476 1328 -9 8 -24 8 -57 -1z"/>
<path d="M6433 2955 c-120 -26 -202 -89 -261 -200 -24 -45 -27 -60 -27 -155 0
-102 1 -107 36 -170 67 -122 177 -184 324 -183 156 1 291 94 340 234 19 54 19
182 0 245 -51 167 -232 267 -412 229z"/>
</g>
</svg>
